External Loads File
version=1
nRows=62
nColumns=13
Range=5.000000e-03-10 seconds
endheader
time 	forceRightX 	forceRightY 	forceRightZ 	pointRightX 	pointRightY 	pointRightZ 	forceLeftX 	forceLeftY 	forceLeftZ 	pointLeftX 	pointLeftY 	pointLeftZ 		
7.505000 24.152833 21.555392 -0.000000 0.066429 0.298375 -0.119246 -270.814399 579.495444 -0.000000 0.336052 0.310661 -0.363286
7.510000 21.068375 23.577658 -0.000000 0.067853 0.308380 -0.120250 -263.664573 587.336132 -0.000000 0.334576 0.299957 -0.363335
7.515000 17.961105 25.230445 -0.000000 0.070642 0.318321 -0.120096 -253.502290 593.075247 -0.000000 0.332695 0.289255 -0.363973
7.520000 14.857004 26.403963 -0.000000 0.073789 0.328135 -0.120535 -240.506937 597.443309 -0.000000 0.329963 0.278727 -0.363429
7.525000 11.779944 26.993502 -0.000000 0.077646 0.337877 -0.120771 -224.608578 601.093812 -0.000000 0.326646 0.268486 -0.363344
7.530000 9.383089 26.694335 -0.000000 0.081875 0.347603 -0.121100 -191.039351 609.345592 -0.000000 0.322686 0.251892 -0.363330
7.535000 6.080906 26.017916 -0.000000 0.086759 0.357314 -0.121253 -174.908217 610.756069 -0.000000 0.318201 0.244501 -0.363251
7.540000 2.940872 24.501916 -0.000000 0.092002 0.366872 -0.121435 -151.063886 613.885628 -0.000000 0.313253 0.234677 -0.363250
7.545000 -0.617892 22.249529 -0.000000 0.097731 0.376441 -0.121653 -132.829429 615.162141 -0.000000 0.307812 0.228836 -0.363214
7.550000 -4.122049 19.337756 -0.000000 0.103962 0.385457 -0.121846 -106.833905 617.383982 -0.000000 0.301760 0.219938 -0.363197
7.555000 -7.875079 15.982043 -0.000000 0.110602 0.394398 -0.122236 -79.967667 618.440127 -0.000000 0.295458 0.211208 -0.363036
7.560000 -11.791634 12.496870 -0.000000 0.117577 0.403082 -0.122500 -48.023605 618.297215 -0.000000 0.288729 0.199477 -0.362853
7.565000 -16.069600 8.902673 -0.000000 0.124751 0.411538 -0.122839 -23.483386 615.549964 -0.000000 0.281690 0.191838 -0.362738
7.570000 -20.369040 5.586018 -0.000000 0.132670 0.419573 -0.123111 3.011302 610.774912 -0.000000 0.274321 0.182577 -0.362616
7.575000 -24.585244 2.513547 -0.000000 0.140470 0.427212 -0.123497 24.746449 603.635444 -0.000000 0.266598 0.175691 -0.362413
7.580000 -28.498996 -0.376792 -0.000000 0.148229 0.434624 -0.123952 38.917339 594.420190 -0.000000 0.258655 0.175595 -0.362183
7.585000 -31.970397 -2.345213 -0.000000 0.156761 0.441386 -0.123809 58.592866 582.110491 -0.000000 0.250364 0.170047 -0.362026
7.590000 -34.936325 -3.561584 -0.000000 0.165407 0.447561 -0.123670 76.062714 566.772534 -0.000000 0.241944 0.165038 -0.361822
7.595000 -37.333275 -3.904060 -0.000000 0.173916 0.453242 -0.124229 91.049608 548.287930 -0.000000 0.233280 0.160919 -0.361673
7.600000 -39.120960 -3.203681 -0.000000 0.182551 0.458288 -0.124676 104.468187 526.444148 -0.000000 0.224270 0.156997 -0.361640
7.605000 -40.248002 -1.480456 -0.000000 0.191358 0.462709 -0.124923 115.448135 501.464717 -0.000000 0.215306 0.153870 -0.361409
7.610000 -40.672705 1.230972 -0.000000 0.200201 0.466573 -0.125200 124.059671 473.569416 -0.000000 0.206228 0.151477 -0.361246
7.615000 -40.378438 4.796198 -0.000000 0.208985 0.469707 -0.125452 129.742780 443.254440 -0.000000 0.197289 0.149851 -0.360944
7.620000 -39.405885 9.134797 -0.000000 0.217634 0.472145 -0.125586 132.671750 410.948914 -0.000000 0.188301 0.148829 -0.360658
7.625000 -37.894374 14.144425 -0.000000 0.226104 0.473950 -0.125607 132.616869 377.356607 -0.000000 0.179411 0.148339 -0.360374
7.630000 -36.085312 19.796100 -0.000000 0.234611 0.475096 -0.125800 129.862189 343.178020 -0.000000 0.170754 0.148430 -0.360091
7.635000 -34.301841 26.102402 -0.000000 0.242965 0.475508 -0.125785 124.772370 309.136690 -0.000000 0.162091 0.149179 -0.359848
7.640000 -32.919027 33.096131 -0.000000 0.251199 0.475228 -0.125765 117.622228 275.975238 -0.000000 0.153550 0.150563 -0.359582
7.645000 -32.328491 40.829133 -0.000000 0.259151 0.474268 -0.125641 108.675961 244.437600 -0.000000 0.145140 0.152537 -0.359420
7.650000 -32.848904 49.405809 -0.000000 0.266833 0.472050 -0.125518 98.482410 215.178320 -0.000000 0.136946 0.155097 -0.359215
7.655000 -34.739537 58.930624 -0.000000 0.274291 0.468963 -0.125268 87.433815 188.961886 -0.000000 0.128998 0.158170 -0.359064
7.660000 -38.802413 69.159540 -0.000000 0.281403 0.467149 -0.124702 74.422499 167.158678 -0.000000 0.121219 0.156657 -0.358935
7.665000 -43.810439 80.872493 -0.000000 0.288480 0.462999 -0.124893 63.379201 148.602298 -0.000000 0.113607 0.160959 -0.359116
7.670000 -50.576418 93.512669 -0.000000 0.295215 0.458512 -0.124600 52.476436 134.467538 -0.000000 0.106334 0.163524 -0.358925
7.675000 -57.615565 107.660173 -0.000000 0.301651 0.453557 -0.124435 43.993360 123.998417 -0.000000 0.099327 0.172206 -0.358638
7.680000 -66.053714 122.453245 -0.000000 0.307618 0.448003 -0.124192 36.378093 117.709741 -0.000000 0.092613 0.177951 -0.358606
7.685000 -73.877968 138.733898 -0.000000 0.313478 0.441619 -0.124249 31.614715 114.594570 -0.000000 0.086248 0.187885 -0.358600
7.690000 -82.854049 155.336520 -0.000000 0.318701 0.434705 -0.124331 27.956666 114.573601 -0.000000 0.080221 0.194613 -0.358635
7.695000 -93.369467 171.835324 -0.000000 0.323564 0.427517 -0.124244 25.190033 116.894945 -0.000000 0.074576 0.198087 -0.358706
7.700000 -102.515942 189.570248 -0.000000 0.328120 0.419720 -0.124171 25.120405 120.397132 -0.000000 0.069371 0.205627 -0.358759
7.705000 -111.306073 207.724203 -0.000000 0.332266 0.411416 -0.124043 26.703783 124.578195 -0.000000 0.064518 0.213662 -0.358789
7.710000 -117.485897 227.101757 -0.000000 0.335987 0.402652 -0.123877 30.870558 128.500573 -0.000000 0.060160 0.225688 -0.358836
7.715000 -124.766470 245.220933 -0.000000 0.339319 0.393435 -0.123515 34.971836 132.143684 -0.000000 0.056319 0.234496 -0.358889
7.720000 -130.817329 262.687293 -0.000000 0.342235 0.383799 -0.123096 39.812408 134.913356 -0.000000 0.052981 0.243767 -0.358832
7.725000 -135.446669 278.968830 -0.000000 0.344714 0.373815 -0.123123 44.946615 136.736655 -0.000000 0.050207 0.253233 -0.358841
7.730000 -138.428156 293.627696 -0.000000 0.346348 0.363662 -0.122195 50.032471 137.719297 -0.000000 0.048018 0.262946 -0.358843
7.735000 -139.052476 306.592426 -0.000000 0.347716 0.353373 -0.122076 55.045068 137.946954 -0.000000 0.045769 0.272845 -0.356833
7.740000 -138.206836 317.247327 -0.000000 0.348757 0.343518 -0.121924 59.353151 137.760346 -0.000000 0.045337 0.282859 -0.358711
7.745000 -133.863569 326.451221 -0.000000 0.349037 0.332575 -0.121652 63.779768 136.885028 -0.000000 0.044826 0.292984 -0.358740
7.750000 -127.766489 333.574472 -0.000000 0.348858 0.322121 -0.121535 67.672826 135.629148 -0.000000 0.044922 0.303247 -0.358786
7.755000 -119.915073 338.887803 -0.000000 0.348368 0.311711 -0.121686 71.224844 133.866236 -0.000000 0.045535 0.313445 -0.359105
7.760000 -110.014148 342.790826 -0.000000 0.347227 0.301049 -0.121240 74.704963 131.340885 -0.000000 0.046834 0.323780 -0.359097
7.765000 -99.176296 345.236616 -0.000000 0.345398 0.290661 -0.121257 77.804909 128.084864 -0.000000 0.048544 0.334019 -0.358819
7.770000 -87.474524 346.564349 -0.000000 0.343452 0.280265 -0.120528 80.615145 123.914978 -0.000000 0.051172 0.344075 -0.359063
7.775000 -75.275795 346.996470 -0.000000 0.340475 0.270259 -0.121253 83.072398 118.740992 -0.000000 0.054476 0.354075 -0.359297
7.780000 -62.433583 346.827807 -0.000000 0.337373 0.259730 -0.121146 85.215021 112.415674 -0.000000 0.057908 0.363917 -0.359399
7.785000 -50.015680 346.112886 -0.000000 0.333607 0.249822 -0.121066 86.618263 105.174885 -0.000000 0.062118 0.373627 -0.359573
7.790000 -37.841062 345.190774 -0.000000 0.329393 0.240187 -0.120985 87.261247 97.015903 -0.000000 0.066867 0.383410 -0.359741
7.795000 -26.964331 344.282767 -0.000000 0.324879 0.230769 -0.120876 86.800489 88.265288 -0.000000 0.072291 0.392380 -0.360068
7.800000 -16.642287 343.772821 -0.000000 0.319841 0.221472 -0.120775 85.423541 78.814502 -0.000000 0.078068 0.401345 -0.360177
7.805000 -7.394132 343.801583 -0.000000 0.314250 0.212500 -0.120821 82.954167 68.934171 -0.000000 0.084024 0.410087 -0.359802
7.810000 1.016864 344.417729 -0.000000 0.308394 0.203826 -0.120639 79.385751 58.781528 -0.000000 0.090742 0.418392 -0.359915
